<svg id="Capa_1" data-name="Capa 1" xmlns="http://www.w3.org/2000/svg" viewBox="0 0 112.71 131.95"><defs><style>.cls-1{fill:#66676a;}.cls-2,.cls-5{fill:#57c02e;}.cls-3{fill:#50c22d;}.cls-4{fill:#6a9b4e;}.cls-4,.cls-5{opacity:0.4;}</style></defs><polygon class="cls-1" points="0 28.66 20.58 28.66 62.32 76.75 63.09 28.66 81.75 28.66 81.75 101.94 60.4 101.94 19.04 53.09 19.43 101.94 0 101.94 0 28.66"/><polygon class="cls-2" points="0 28.66 13.66 20 33.47 20 62.7 52.88 62.32 76.75 20.58 28.66 0 28.66"/><polygon class="cls-2" points="63.09 28.66 72.71 20 95.98 20 95.98 92.71 81.75 101.94 81.75 28.66 63.09 28.66"/><polygon class="cls-2" points="19.43 101.94 33.26 93.28 33.14 69.74 19.04 53.09 19.43 101.94"/><polygon class="cls-1" points="63.28 8.46 80.98 8.46 95.59 0 95.59 14.81 80.98 24.04 63.28 24.04 63.28 8.46"/><polygon class="cls-3" points="63.28 8.46 80.98 8.46 95.59 0 75.01 0 63.28 8.46"/><polygon class="cls-4" points="0 39.24 0 131.95 19.23 101.94 33.66 92.9 62.51 52.88 33.66 20 22.5 20 0 39.24"/><polygon class="cls-4" points="81.75 101.94 81.75 28.66 62.7 52.88 62.32 76.75 81.75 101.94"/><polygon class="cls-4" points="95.59 0 112.71 0 95.59 14.81 95.59 0"/><polygon class="cls-5" points="80.98 8.46 95.59 14.81 95.59 0 80.98 8.46"/></svg>